name C:\Users\u0101727\Documents\MyRepositories\upper-imu-dc\OpenSim\subject0\MA\ResultsMA\grid_4nodes_9dim\angles_14.mot
datacolumns 10
datarows 42
range 1450.01000000 1450.42000000
endheader 
time	clav_prot	clav_elev	scapula_abduction	scapula_elevation	scapula_upward_rot	scapula_winging	plane_elv	shoulder_elv	axial_rot	
       1450.01000000	        -50.00000000	         10.00000000	         -3.33333333	         -3.33333333	         60.00000000	        -10.00000000	         90.00000000	        -10.00000000	         30.00000000	
       1450.02000000	        -38.33333333	         10.00000000	         -3.33333333	         -3.33333333	         60.00000000	        -10.00000000	         90.00000000	        -10.00000000	         30.00000000	
       1450.03000000	        -26.66666667	         10.00000000	         -3.33333333	         -3.33333333	         60.00000000	        -10.00000000	         90.00000000	        -10.00000000	         30.00000000	
       1450.04000000	        -15.00000000	         10.00000000	         -3.33333333	         -3.33333333	         60.00000000	        -10.00000000	         90.00000000	        -10.00000000	         30.00000000	
       1450.05000000	        -50.00000000	         20.00000000	         -3.33333333	         -3.33333333	         60.00000000	        -10.00000000	         90.00000000	        -10.00000000	         30.00000000	
       1450.06000000	        -38.33333333	         20.00000000	         -3.33333333	         -3.33333333	         60.00000000	        -10.00000000	         90.00000000	        -10.00000000	         30.00000000	
       1450.07000000	        -26.66666667	         20.00000000	         -3.33333333	         -3.33333333	         60.00000000	        -10.00000000	         90.00000000	        -10.00000000	         30.00000000	
       1450.08000000	        -15.00000000	         20.00000000	         -3.33333333	         -3.33333333	         60.00000000	        -10.00000000	         90.00000000	        -10.00000000	         30.00000000	
       1450.09000000	        -50.00000000	        -10.00000000	         15.00000000	         -3.33333333	         60.00000000	        -10.00000000	         90.00000000	        -10.00000000	         30.00000000	
       1450.10000000	        -38.33333333	        -10.00000000	         15.00000000	         -3.33333333	         60.00000000	        -10.00000000	         90.00000000	        -10.00000000	         30.00000000	
       1450.11000000	        -26.66666667	        -10.00000000	         15.00000000	         -3.33333333	         60.00000000	        -10.00000000	         90.00000000	        -10.00000000	         30.00000000	
       1450.12000000	        -15.00000000	        -10.00000000	         15.00000000	         -3.33333333	         60.00000000	        -10.00000000	         90.00000000	        -10.00000000	         30.00000000	
       1450.13000000	        -50.00000000	          0.00000000	         15.00000000	         -3.33333333	         60.00000000	        -10.00000000	         90.00000000	        -10.00000000	         30.00000000	
       1450.14000000	        -38.33333333	          0.00000000	         15.00000000	         -3.33333333	         60.00000000	        -10.00000000	         90.00000000	        -10.00000000	         30.00000000	
       1450.15000000	        -26.66666667	          0.00000000	         15.00000000	         -3.33333333	         60.00000000	        -10.00000000	         90.00000000	        -10.00000000	         30.00000000	
       1450.16000000	        -15.00000000	          0.00000000	         15.00000000	         -3.33333333	         60.00000000	        -10.00000000	         90.00000000	        -10.00000000	         30.00000000	
       1450.17000000	        -50.00000000	         10.00000000	         15.00000000	         -3.33333333	         60.00000000	        -10.00000000	         90.00000000	        -10.00000000	         30.00000000	
       1450.18000000	        -38.33333333	         10.00000000	         15.00000000	         -3.33333333	         60.00000000	        -10.00000000	         90.00000000	        -10.00000000	         30.00000000	
       1450.19000000	        -26.66666667	         10.00000000	         15.00000000	         -3.33333333	         60.00000000	        -10.00000000	         90.00000000	        -10.00000000	         30.00000000	
       1450.20000000	        -15.00000000	         10.00000000	         15.00000000	         -3.33333333	         60.00000000	        -10.00000000	         90.00000000	        -10.00000000	         30.00000000	
       1450.21000000	        -50.00000000	         20.00000000	         15.00000000	         -3.33333333	         60.00000000	        -10.00000000	         90.00000000	        -10.00000000	         30.00000000	
       1450.22000000	        -38.33333333	         20.00000000	         15.00000000	         -3.33333333	         60.00000000	        -10.00000000	         90.00000000	        -10.00000000	         30.00000000	
       1450.23000000	        -26.66666667	         20.00000000	         15.00000000	         -3.33333333	         60.00000000	        -10.00000000	         90.00000000	        -10.00000000	         30.00000000	
       1450.24000000	        -15.00000000	         20.00000000	         15.00000000	         -3.33333333	         60.00000000	        -10.00000000	         90.00000000	        -10.00000000	         30.00000000	
       1450.25000000	        -50.00000000	        -10.00000000	        -40.00000000	          3.33333333	         60.00000000	        -10.00000000	         90.00000000	        -10.00000000	         30.00000000	
       1450.26000000	        -38.33333333	        -10.00000000	        -40.00000000	          3.33333333	         60.00000000	        -10.00000000	         90.00000000	        -10.00000000	         30.00000000	
       1450.27000000	        -26.66666667	        -10.00000000	        -40.00000000	          3.33333333	         60.00000000	        -10.00000000	         90.00000000	        -10.00000000	         30.00000000	
       1450.28000000	        -15.00000000	        -10.00000000	        -40.00000000	          3.33333333	         60.00000000	        -10.00000000	         90.00000000	        -10.00000000	         30.00000000	
       1450.29000000	        -50.00000000	          0.00000000	        -40.00000000	          3.33333333	         60.00000000	        -10.00000000	         90.00000000	        -10.00000000	         30.00000000	
       1450.30000000	        -38.33333333	          0.00000000	        -40.00000000	          3.33333333	         60.00000000	        -10.00000000	         90.00000000	        -10.00000000	         30.00000000	
       1450.31000000	        -26.66666667	          0.00000000	        -40.00000000	          3.33333333	         60.00000000	        -10.00000000	         90.00000000	        -10.00000000	         30.00000000	
       1450.32000000	        -15.00000000	          0.00000000	        -40.00000000	          3.33333333	         60.00000000	        -10.00000000	         90.00000000	        -10.00000000	         30.00000000	
       1450.33000000	        -50.00000000	         10.00000000	        -40.00000000	          3.33333333	         60.00000000	        -10.00000000	         90.00000000	        -10.00000000	         30.00000000	
       1450.34000000	        -38.33333333	         10.00000000	        -40.00000000	          3.33333333	         60.00000000	        -10.00000000	         90.00000000	        -10.00000000	         30.00000000	
       1450.35000000	        -26.66666667	         10.00000000	        -40.00000000	          3.33333333	         60.00000000	        -10.00000000	         90.00000000	        -10.00000000	         30.00000000	
       1450.36000000	        -15.00000000	         10.00000000	        -40.00000000	          3.33333333	         60.00000000	        -10.00000000	         90.00000000	        -10.00000000	         30.00000000	
       1450.37000000	        -50.00000000	         20.00000000	        -40.00000000	          3.33333333	         60.00000000	        -10.00000000	         90.00000000	        -10.00000000	         30.00000000	
       1450.38000000	        -38.33333333	         20.00000000	        -40.00000000	          3.33333333	         60.00000000	        -10.00000000	         90.00000000	        -10.00000000	         30.00000000	
       1450.39000000	        -26.66666667	         20.00000000	        -40.00000000	          3.33333333	         60.00000000	        -10.00000000	         90.00000000	        -10.00000000	         30.00000000	
       1450.40000000	        -15.00000000	         20.00000000	        -40.00000000	          3.33333333	         60.00000000	        -10.00000000	         90.00000000	        -10.00000000	         30.00000000	
       1450.41000000	        -50.00000000	        -10.00000000	        -21.66666667	          3.33333333	         60.00000000	        -10.00000000	         90.00000000	        -10.00000000	         30.00000000	
       1450.42000000	        -38.33333333	        -10.00000000	        -21.66666667	          3.33333333	         60.00000000	        -10.00000000	         90.00000000	        -10.00000000	         30.00000000	
